<?xml version="1.0" encoding="UTF-8"?>
<svg width="760px" height="320px" viewBox="0 0 760 320" version="1.1" xmlns="http://www.w3.org/2000/svg" xmlns:xlink="http://www.w3.org/1999/xlink">
    <!-- Generator: Sketch 52.2 (67145) - http://www.bohemiancoding.com/sketch -->
    <title>Logo on white background</title>
    <desc>Created with Sketch.</desc>
    <defs>
        <linearGradient x1="50%" y1="100%" x2="50%" y2="0%" id="linearGradient-1">
            <stop stop-color="#8DD1CE" offset="0%"></stop>
            <stop stop-color="#E065A4" offset="100%"></stop>
        </linearGradient>
    </defs>
    <g id="Logo-on-white-background" stroke="none" stroke-width="1" fill="none" fill-rule="evenodd">
        <g id="Xircles-logo-dark" transform="translate(79.000000, 80.000000)">
            <path d="M205.303275,112.405063 L228.235638,80.012922 L205.303275,47.8830653 L226.007923,47.8830653 C228.235638,51.4239066 236.622331,63.4889957 238.850047,67.029837 L251.561128,47.8830653 L271.348482,47.8830653 L248.809245,79.4883529 L272.134735,112.405063 L251.692171,112.405063 L238.194836,92.6025802 C235.836079,96.1434215 227.187302,108.864222 224.959586,112.405063 L205.303275,112.405063 Z M300.17774,112.405063 L282.749143,112.405063 L282.749143,47.8830653 L300.17774,47.8830653 L300.17774,112.405063 Z M280.65247,26.7691594 C280.65247,20.7366149 285.501027,15.8843508 291.39792,15.8843508 C297.425856,15.8843508 302.143371,20.7366149 302.143371,26.7691594 C302.143371,32.5394194 297.425856,37.3916835 291.39792,37.3916835 C285.501027,37.3916835 280.65247,32.5394194 280.65247,26.7691594 Z M358.098339,47.6207807 L358.098339,65.1938452 C356.132707,64.8004184 354.42916,64.6692761 352.856655,64.6692761 C343.945794,64.6692761 336.214311,68.9969711 336.214311,82.898052 L336.214311,112.405063 L318.785715,112.405063 L318.785715,47.8830653 L335.690143,47.8830653 L335.690143,57.4564511 C339.621405,48.9322034 348.532267,47.3584962 354.036034,47.3584962 C355.477497,47.3584962 356.787918,47.4896384 358.098339,47.6207807 Z M398.983467,62.0464307 C390.072606,62.0464307 382.603207,68.472402 382.603207,80.1440643 C382.603207,91.8157265 390.203648,98.3728401 399.114509,98.3728401 C408.025371,98.3728401 412.480801,92.4714379 413.922264,87.4880315 L429.254187,92.6025802 C426.371262,103.356246 416.281022,114.372197 399.114509,114.372197 C380.113408,114.372197 365.174611,99.9465474 365.174611,80.1440643 C365.174611,60.2104389 379.851324,45.9159312 398.590341,45.9159312 C416.149979,45.9159312 426.109177,56.8007398 428.861061,67.6855484 L413.267054,72.9312393 C411.694549,67.5544061 407.632244,62.0464307 398.983467,62.0464307 Z M459.524908,112.405063 L442.096311,112.405063 L442.096311,17.4580581 L459.524908,17.4580581 L459.524908,112.405063 Z M490.843964,72.800097 L519.673222,72.800097 C519.411138,66.3741257 515.217791,60.0792966 505.258593,60.0792966 C496.21669,60.0792966 491.237091,66.8986948 490.843964,72.800097 Z M521.376769,89.5863079 L535.92244,93.9140029 C532.646388,105.061096 522.425105,114.372197 506.569014,114.372197 C488.878333,114.372197 473.284326,101.651397 473.284326,79.8817797 C473.284326,59.292443 488.485207,45.9159312 504.996509,45.9159312 C524.914905,45.9159312 536.839734,58.6367316 536.839734,79.3572106 C536.839734,81.8489138 536.57765,84.4717593 536.57765,84.7340438 L490.450838,84.7340438 C490.843964,93.2582915 498.051279,99.4219783 506.700056,99.4219783 C514.824665,99.4219783 519.280096,95.3565679 521.376769,89.5863079 Z M545.095385,94.438572 L560.034182,91.1600152 C560.427308,96.2745638 564.227529,100.995686 571.827969,100.995686 C577.593821,100.995686 580.345704,97.9794133 580.345704,94.5697142 C580.345704,91.6845842 578.380073,89.3240233 573.400474,88.2748852 L564.882739,86.3077511 C552.433741,83.5537634 546.798932,76.0786538 546.798932,67.029837 C546.798932,55.4893171 557.020214,45.9159312 570.910675,45.9159312 C589.256566,45.9159312 595.415543,57.5875934 596.201796,64.5381339 L581.656125,67.8166907 C581.131957,64.0135648 578.380073,59.1613007 571.041717,59.1613007 C566.455244,59.1613007 562.786066,61.9152884 562.786066,65.587272 C562.786066,68.7346866 565.144823,70.7018207 568.682959,71.357532 L577.855905,73.3246661 C590.566986,75.9475116 596.988048,83.6849056 596.988048,93.1271492 C596.988048,103.618531 588.863439,114.372197 571.959011,114.372197 C552.564784,114.372197 545.881638,101.782539 545.095385,94.438572 Z" id="xircles-copy-4" fill="#494D5B"></path>
            <g id="Group-4-Copy-7" transform="translate(80.938879, 80.000000) rotate(90.000000) translate(-80.938879, -80.000000) translate(1.000000, 0.000000)">
                <ellipse id="Oval-3" fill="#494D5B" cx="79.9217881" cy="79.9828955" rx="79.9217881" ry="79.9828955"></ellipse>
                <g id="Group-3" transform="translate(37.269228, 20.719405)" fill="url(#linearGradient-1)">
                    <path d="M69.1140199,118.281163 L42.8749651,77.8765617 L16.2455107,118.882326 C10.7051409,116.445377 5.57537995,113.24673 0.988776708,109.418955 L32.1738058,61.3982213 L-0.00309853385,11.8501338 C4.50572166,7.92751794 9.56824477,4.62510169 15.0516474,2.07572887 L42.8749651,44.9198809 L70.3116611,2.67107406 C75.7327355,5.34376221 80.7212579,8.76051755 85.1439466,12.788038 L53.5761245,61.3982213 L84.1491003,108.476476 C79.6478743,112.408346 74.5918951,115.720868 69.1140199,118.281163 Z" id="Combined-Shape"></path>
                </g>
            </g>
        </g>
    </g>
</svg>