<?xml version="1.0" encoding="UTF-8"?>
<svg width="760px" height="321px" viewBox="0 0 760 321" version="1.1" xmlns="http://www.w3.org/2000/svg" xmlns:xlink="http://www.w3.org/1999/xlink">
    <!-- Generator: Sketch 52.2 (67145) - http://www.bohemiancoding.com/sketch -->
    <title>Logo on dark background</title>
    <desc>Created with Sketch.</desc>
    <defs>
        <linearGradient x1="50%" y1="100%" x2="50%" y2="0%" id="linearGradient-1">
            <stop stop-color="#8DD1CE" offset="0%"></stop>
            <stop stop-color="#E065A4" offset="100%"></stop>
        </linearGradient>
    </defs>
    <g id="Logo-on-dark-background" stroke="none" stroke-width="1" fill="none" fill-rule="evenodd">
        <rect fill="#494D5B" x="0" y="0" width="760" height="321"></rect>
        <g id="Xircles-logo-" transform="translate(80.000000, 80.000000)">
            <path d="M204.303275,112.405063 L227.235638,80.012922 L204.303275,47.8830653 L225.007923,47.8830653 C227.235638,51.4239066 235.622331,63.4889957 237.850047,67.029837 L250.561128,47.8830653 L270.348482,47.8830653 L247.809245,79.4883529 L271.134735,112.405063 L250.692171,112.405063 L237.194836,92.6025802 C234.836079,96.1434215 226.187302,108.864222 223.959586,112.405063 L204.303275,112.405063 Z M299.17774,112.405063 L281.749143,112.405063 L281.749143,47.8830653 L299.17774,47.8830653 L299.17774,112.405063 Z M279.65247,26.7691594 C279.65247,20.7366149 284.501027,15.8843508 290.39792,15.8843508 C296.425856,15.8843508 301.143371,20.7366149 301.143371,26.7691594 C301.143371,32.5394194 296.425856,37.3916835 290.39792,37.3916835 C284.501027,37.3916835 279.65247,32.5394194 279.65247,26.7691594 Z M357.098339,47.6207807 L357.098339,65.1938452 C355.132707,64.8004184 353.42916,64.6692761 351.856655,64.6692761 C342.945794,64.6692761 335.214311,68.9969711 335.214311,82.898052 L335.214311,112.405063 L317.785715,112.405063 L317.785715,47.8830653 L334.690143,47.8830653 L334.690143,57.4564511 C338.621405,48.9322034 347.532267,47.3584962 353.036034,47.3584962 C354.477497,47.3584962 355.787918,47.4896384 357.098339,47.6207807 Z M397.983467,62.0464307 C389.072606,62.0464307 381.603207,68.472402 381.603207,80.1440643 C381.603207,91.8157265 389.203648,98.3728401 398.114509,98.3728401 C407.025371,98.3728401 411.480801,92.4714379 412.922264,87.4880315 L428.254187,92.6025802 C425.371262,103.356246 415.281022,114.372197 398.114509,114.372197 C379.113408,114.372197 364.174611,99.9465474 364.174611,80.1440643 C364.174611,60.2104389 378.851324,45.9159312 397.590341,45.9159312 C415.149979,45.9159312 425.109177,56.8007398 427.861061,67.6855484 L412.267054,72.9312393 C410.694549,67.5544061 406.632244,62.0464307 397.983467,62.0464307 Z M458.524908,112.405063 L441.096311,112.405063 L441.096311,17.4580581 L458.524908,17.4580581 L458.524908,112.405063 Z M489.843964,72.800097 L518.673222,72.800097 C518.411138,66.3741257 514.217791,60.0792966 504.258593,60.0792966 C495.21669,60.0792966 490.237091,66.8986948 489.843964,72.800097 Z M520.376769,89.5863079 L534.92244,93.9140029 C531.646388,105.061096 521.425105,114.372197 505.569014,114.372197 C487.878333,114.372197 472.284326,101.651397 472.284326,79.8817797 C472.284326,59.292443 487.485207,45.9159312 503.996509,45.9159312 C523.914905,45.9159312 535.839734,58.6367316 535.839734,79.3572106 C535.839734,81.8489138 535.57765,84.4717593 535.57765,84.7340438 L489.450838,84.7340438 C489.843964,93.2582915 497.051279,99.4219783 505.700056,99.4219783 C513.824665,99.4219783 518.280096,95.3565679 520.376769,89.5863079 Z M544.095385,94.438572 L559.034182,91.1600152 C559.427308,96.2745638 563.227529,100.995686 570.827969,100.995686 C576.593821,100.995686 579.345704,97.9794133 579.345704,94.5697142 C579.345704,91.6845842 577.380073,89.3240233 572.400474,88.2748852 L563.882739,86.3077511 C551.433741,83.5537634 545.798932,76.0786538 545.798932,67.029837 C545.798932,55.4893171 556.020214,45.9159312 569.910675,45.9159312 C588.256566,45.9159312 594.415543,57.5875934 595.201796,64.5381339 L580.656125,67.8166907 C580.131957,64.0135648 577.380073,59.1613007 570.041717,59.1613007 C565.455244,59.1613007 561.786066,61.9152884 561.786066,65.587272 C561.786066,68.7346866 564.144823,70.7018207 567.682959,71.357532 L576.855905,73.3246661 C589.566986,75.9475116 595.988048,83.6849056 595.988048,93.1271492 C595.988048,103.618531 587.863439,114.372197 570.959011,114.372197 C551.564784,114.372197 544.881638,101.782539 544.095385,94.438572 Z" id="xircles-copy-4" fill="#FFFFFF"></path>
            <ellipse id="Oval-3" fill="#FFFFFF" transform="translate(79.955971, 79.982896) rotate(90.000000) translate(-79.955971, -79.982896) " cx="79.9559708" cy="79.9828955" rx="79.9217881" ry="79.9828955"></ellipse>
            <g id="Group-3" transform="translate(79.449998, 79.990474) rotate(90.000000) translate(-79.449998, -79.990474) translate(36.789865, 20.220623)" fill="url(#linearGradient-1)">
                <path d="M69.1140199,118.281163 L42.8749651,77.8765617 L16.2455107,118.882326 C10.7051409,116.445377 5.57537995,113.24673 0.988776708,109.418955 L32.1738058,61.3982213 L-0.00309853385,11.8501338 C4.50572166,7.92751794 9.56824477,4.62510169 15.0516474,2.07572887 L42.8749651,44.9198809 L70.3116611,2.67107406 C75.7327355,5.34376221 80.7212579,8.76051755 85.1439466,12.788038 L53.5761245,61.3982213 L84.1491003,108.476476 C79.6478743,112.408346 74.5918951,115.720868 69.1140199,118.281163 Z" id="Combined-Shape"></path>
            </g>
        </g>
    </g>
</svg>